PathFileType	4	(X/Y/Z)	..\data\2014050\dynamic\2014050_C4_04.trc
DataRate	CameraRate	NumFrames	NumMarkers	Units	OrigDataRate	OrigDataStartFrame	OrigNumFrames
100.000000	100.000000	4	52	mm	100.000000	103	165
Frame#	Time	L_IAS			L_IPS			R_IPS			R_IAS			L_FTC			L_FLE			L_FME			L_FAX			L_TTC			L_FAL			L_TAM			L_FCC			L_FM1			L_FM2			L_FM5			R_FTC			R_FLE			R_FME			R_FAX			R_TTC			R_FAL			R_TAM			R_FCC			R_FM1			R_FM2			R_FM5			CV7			TV10			SXS			SJN			L_SIA			L_SRS			L_SAA			L_SAE			L_HLE			L_HME			L_UOA			L_RSP			L_UHE			L_HM2			L_HM5			R_SIA			R_SRS			R_SAA			R_SAE			R_HLE			R_HME			R_UOA			R_RSP			R_UHE			R_HM2			R_HM5			
		X1	Y1	Z1	X2	Y2	Z2	X3	Y3	Z3	X4	Y4	Z4	X5	Y5	Z5	X6	Y6	Z6	X7	Y7	Z7	X8	Y8	Z8	X9	Y9	Z9	X10	Y10	Z10	X11	Y11	Z11	X12	Y12	Z12	X13	Y13	Z13	X14	Y14	Z14	X15	Y15	Z15	X16	Y16	Z16	X17	Y17	Z17	X18	Y18	Z18	X19	Y19	Z19	X20	Y20	Z20	X21	Y21	Z21	X22	Y22	Z22	X23	Y23	Z23	X24	Y24	Z24	X25	Y25	Z25	X26	Y26	Z26	X27	Y27	Z27	X28	Y28	Z28	X29	Y29	Z29	X30	Y30	Z30	X31	Y31	Z31	X32	Y32	Z32	X33	Y33	Z33	X34	Y34	Z34	X35	Y35	Z35	X36	Y36	Z36	X37	Y37	Z37	X38	Y38	Z38	X39	Y39	Z39	X40	Y40	Z40	X41	Y41	Z41	X42	Y42	Z42	X43	Y43	Z43	X44	Y44	Z44	X45	Y45	Z45	X46	Y46	Z46	X47	Y47	Z47	X48	Y48	Z48	X49	Y49	Z49	X50	Y50	Z50	X51	Y51	Z51	X52	Y52	Z52	

104	1.03	1108.1083984375	875.091735839844	-322.4463500976563	911.4571533203127	897.322937011719	-253.3588409423829	918.2108154296877	889.0035400390627	-147.4371795654297	1118.326416015625	882.820251464844	-109.4200515747071	1030.02978515625	794.9545898437502	-405.230682373047	929.389587402344	426.8173828125001	-340.4711303710938	957.7138671875002	421.445770263672	-208.4914245605469	884.7463989257815	375.8204040527344	-337.2355041503907	941.8215332031252	351.1205444335938	-288.5474548339844	781.8159179687502	82.79615783691408	-284.8620300292969	806.1053466796877	87.08795166015626	-201.3975067138672	731.6629638671876	45.31084823608399	-229.7383880615235	901.7114868164065	19.48857879638672	-211.9632415771485	912.5996093750002	32.39481735229493	-266.2264099121094	865.9619750976565	12.10981273651123	-315.4059448242188	1056.234619140625	774.736755371094	-15.24491786956787	1177.8896484375	435.4041137695314	-66.97417449951173	1189.731201171875	430.9512939453126	-207.9163818359376	1171.059814453125	374.9146728515626	-65.02986907958986	1243.836181640625	393.4961547851564	-117.2419738769532	1287.8603515625	67.05513000488283	-98.22368621826175	1305.584350585938	95.54100799560548	-182.3416137695313	1270.154541015625	12.25557136535645	-151.6466064453125	1432.216186523438	82.41487884521486	-177.8009033203125	1426.494262695313	99.56635284423831	-124.7198715209961	1401.953735351563	64.67012786865236	-79.59861755371095	999.1571044921877	1370.275024414063	-217.0888061523438	911.0747070312502	1149.863403320313	-221.398666381836	1128.371948242188	1043.665405273438	-211.143295288086	1108.0068359375	1272.62841796875	-213.0736389160157	915.803894042969	1193.771484375	-313.4147033691407	956.6218872070315	1308.1318359375	-315.2867431640626	1009.746459960938	1319.509033203125	-376.6088867187501	1059.144165039063	1319.677978515625	-382.5342712402344	1102.597778320313	1039.859375	-488.9596557617189	1065.7548828125	999.902770996094	-423.6281127929689	1087.92724609375	987.5274047851565	-472.8997802734376	1292.445190429688	903.2332763671877	-434.7054138183595	1260.303833007813	873.6828613281252	-489.4621887207032	1362.567138671875	868.101013183594	-430.6130981445314	1301.475219726563	816.929626464844	-484.7877197265626	900.6428833007815	1201.681640625	-148.7429351806641	947.367126464844	1306.47265625	-137.7689208984375	988.113952636719	1316.514282226563	-66.24043273925783	1055.33642578125	1310.695068359375	-40.60625076293946	906.4045410156252	1040.044921875	14.80391025543213	879.615417480469	1035.759033203125	-61.04145812988283	868.9276123046877	1021.124145507813	-12.27510356903077	901.5822753906252	805.3216552734377	24.53015708923341	840.3256835937502	833.327575683594	49.31552505493165	879.0547485351565	721.4958496093751	26.62451934814454	800.0816040039065	772.0515136718752	46.50704574584962	
105	1.04	1120.440063476563	874.0689086914065	-321.8485717773438	923.9119262695315	896.1438598632815	-251.6914978027344	930.9805908203127	887.5071411132815	-145.9033203125	1131.02978515625	881.763610839844	-108.6437606811524	1041.79833984375	794.3748779296877	-404.2832031250001	938.7857055664065	426.8046875000001	-340.9649047851563	967.3281250000002	420.8716735839845	-209.1146240234376	893.1029052734377	376.5231018066407	-337.9284973144532	949.6517333984377	350.5833129882813	-289.3433837890626	783.5778808593752	85.84112548828126	-286.3698120117188	807.3776855468752	89.33155059814455	-202.8346252441407	732.1411743164064	49.25382232666017	-231.3310089111329	901.6710205078127	19.51836967468262	-212.2418518066407	913.013366699219	32.46799850463868	-266.5783996582032	866.3025512695315	11.91588497161865	-315.7007751464844	1068.938842773438	773.154479980469	-14.54888153076172	1191.494506835938	434.5260314941407	-66.89451599121095	1201.714477539063	429.8198242187501	-208.2054901123047	1184.438110351563	373.9255676269532	-65.00833892822267	1256.841064453125	392.764617919922	-117.8543319702149	1301.719116210938	66.5464324951172	-98.57580566406253	1318.817138671875	95.01980590820314	-182.8524475097657	1283.128662109375	12.29045486450196	-151.6792449951172	1445.274291992188	82.03425598144533	-179.2232360839844	1440.220458984375	98.96161651611331	-125.9761962890625	1415.8603515625	63.9148635864258	-80.99166870117189	1010.716491699219	1368.992797851563	-216.1359252929688	922.834899902344	1148.348388671875	-220.5336456298829	1140.450439453125	1042.723388671875	-210.129867553711	1119.67431640625	1271.448608398438	-211.9800567626954	927.6138305664065	1192.317993164063	-312.6133117675782	968.259948730469	1306.880981445313	-314.4417114257813	1021.467163085938	1318.359008789063	-375.7073974609376	1070.896850585938	1318.635620117188	-381.5446472167969	1115.457397460938	1039.209594726563	-488.2059631347657	1078.325561523438	998.8936157226565	-423.3489990234376	1100.94970703125	986.6308593750002	-472.2652282714845	1305.810913085938	904.006286621094	-432.7635498046876	1274.442260742188	874.0894165039065	-487.616180419922	1376.273071289063	870.0415649414065	-428.2009582519532	1316.411376953125	817.9122314453127	-482.7108764648439	912.2467041015627	1200.062133789063	-148.1148376464844	958.7203369140627	1304.941284179688	-137.0020294189453	999.0145263671877	1314.538452148438	-66.20869445800783	1062.309692382813	1310.187377929688	-43.89487838745118	917.135925292969	1038.82861328125	15.28849792480469	890.7539672851565	1034.481201171875	-60.64405441284181	879.887145996094	1019.710510253906	-11.96721839904785	913.5378417968752	804.1783447265627	24.91447257995606	851.9070434570315	831.5661621093752	49.16307449340822	891.6146240234377	720.0698852539064	26.30625343322755	812.111755371094	769.9463500976565	45.76182556152344	
106	1.05	1133.037353515625	873.137145996094	-321.1536254882813	936.6038818359377	895.094177246094	-250.0687103271485	943.8818359375002	886.261413574219	-144.3934936523438	1143.897338867188	880.870056152344	-107.7854919433594	1053.823852539063	793.8340454101565	-403.2865295410157	948.7749023437502	426.7647705078126	-341.6027832031251	977.3153076171877	420.233123779297	-209.8012695312501	902.0359497070315	377.2586975097657	-338.7926635742188	958.0469360351565	349.9848937988282	-290.3167419433594	785.7299804687502	89.12964630126955	-288.1414489746094	808.8868408203127	91.81692504882814	-204.5114746093751	732.8781738281251	53.68524169921876	-233.1619262695313	901.5454711914065	19.51154136657715	-212.4564514160157	913.4126586914065	32.45615005493165	-266.8868103027344	866.6459960937502	11.63058376312256	-315.9752807617188	1081.885986328125	771.9320068359377	-13.78954124450684	1205.43896484375	433.9124450683595	-66.75390625000001	1214.339111328125	429.0231323242189	-208.2896118164063	1197.76708984375	373.1968383789063	-64.92571258544923	1269.81884765625	391.9082641601564	-118.4129104614258	1313.179931640625	65.65199279785158	-98.95725250244143	1329.80126953125	93.93149566650392	-183.4517974853516	1293.099609375	12.22812461853028	-151.6373748779297	1455.9326171875	79.99392700195314	-180.6463928222657	1451.600830078125	96.83671569824222	-127.2398376464844	1427.125732421875	61.92128372192384	-82.40045166015626	1022.389953613281	1367.85302734375	-215.0368041992188	934.7185668945315	1146.97265625	-219.5969848632813	1152.763061523438	1041.96337890625	-209.0248565673829	1131.45703125	1270.451049804688	-210.7383728027344	939.5351562500002	1190.996826171875	-311.6602478027344	979.987487792969	1305.748901367188	-313.4315795898438	1033.274780273438	1317.315185546875	-374.6468811035157	1082.717895507813	1317.712036132813	-380.4472656250001	1128.02197265625	1038.542724609375	-487.2685546875001	1090.59912109375	997.9584960937502	-422.834686279297	1113.585327148438	985.7910156250002	-471.4349670410157	1318.595336914063	904.2791748046877	-430.8175354003907	1287.864501953125	874.1133422851565	-485.7661437988282	1389.295532226563	871.2622680664065	-425.8706665039064	1330.4541015625	818.3862915039065	-480.6708374023439	924.0120239257815	1198.549438476563	-147.3353118896485	970.1944580078127	1303.526611328125	-136.0779876708985	1010.039794921875	1312.674194335938	-66.00643920898439	1069.821533203125	1309.759765625	-46.57188796997071	928.277526855469	1037.5869140625	15.87768936157227	902.2517700195315	1033.179565429688	-60.14653778076173	891.267761230469	1018.236450195313	-11.56571578979492	926.2456054687502	803.0413208007815	25.44034576416016	864.1544189453127	829.6921997070315	49.07986450195314	905.0618896484377	718.6870117187501	26.19439697265626	824.9334716796877	767.6386108398439	45.09549713134766	
107	1.06	1145.88330078125	872.3125000000002	-320.3524169921876	949.5134277343752	894.1688232421877	-248.5306549072266	956.8986816406252	885.2868652343752	-142.9377746582032	1156.921997070313	880.1780395507815	-106.859359741211	1066.107788085938	793.3123168945315	-402.2532958984376	959.4204711914065	426.6712951660157	-342.3854675292969	987.759216308594	419.4984130859376	-210.5572662353516	911.6109619140627	378.0123291015626	-339.8186950683594	967.0863037109377	349.2972412109376	-291.4769287109376	788.324890136719	92.67516326904298	-290.1315917968751	810.737731933594	94.55935668945314	-206.4036102294922	733.9994506835939	58.68138122558595	-235.1776885986329	901.3154296875002	19.47896766662598	-212.5667877197266	913.7610473632815	32.33139038085938	-267.1005554199219	866.9567871093752	11.27913665771485	-316.1826782226563	1095.083862304688	771.144714355469	-12.95580387115479	1219.599731445313	433.5547485351564	-66.53670501708986	1227.520141601563	428.581512451172	-208.1399078369141	1211.036254882813	372.7244567871094	-64.75967407226564	1282.7314453125	390.961883544922	-118.8919677734375	1322.488525390625	64.42355346679689	-99.33789825439456	1338.753295898438	92.3576126098633	-184.1034393310547	1300.395141601563	12.08115959167481	-151.5161743164063	1464.441162109375	76.4349822998047	-182.0605926513672	1460.886108398438	93.31063079833986	-128.5036926269532	1436.023071289063	58.79084777832033	-83.78753662109376	1034.183471679688	1366.87890625	-213.7924499511719	946.716735839844	1145.77001953125	-218.6016082763672	1165.300659179688	1041.392211914063	-207.8391418457032	1143.36474609375	1269.649780273438	-209.359115600586	951.5743408203127	1189.840576171875	-310.5675048828126	991.8171386718752	1304.765869140625	-312.2647399902344	1045.1845703125	1316.408325195313	-373.4370422363282	1094.6240234375	1316.929443359375	-379.2450256347657	1140.29248046875	1037.878051757813	-486.1470947265626	1102.572509765625	997.1198730468752	-422.0773315429689	1125.829833984375	985.0288696289065	-470.4105224609376	1330.801025390625	904.049011230469	-428.8816528320314	1300.557861328125	873.747741699219	-483.9285583496095	1401.64208984375	871.7395629882815	-423.6439514160157	1343.58349609375	818.330505371094	-478.6876831054689	935.9462890625002	1197.17529296875	-146.4036560058594	981.808776855469	1302.255493164063	-134.9923095703125	1021.236450195313	1310.974853515625	-65.5803680419922	1078.054809570313	1309.391967773438	-48.47735977172853	939.849548339844	1036.332641601563	16.57025718688965	914.1365966796877	1031.8671875	-59.54999160766603	903.088317871094	1016.719848632813	-11.06807231903076	939.6941528320315	801.9210205078127	26.10449028015137	877.0698242187502	827.7366333007815	49.07582855224611	919.3572387695315	717.3746948242189	26.30314826965333	838.5364379882815	765.1824951171876	44.52801895141602	
